<svg width="21" height="63" viewBox="0 0 21 63" fill="none" xmlns="http://www.w3.org/2000/svg">
<g id="Group 6316">
<g id="Group">
<g id="Group_2">
<path id="Vector" d="M11.4683 62.378L20.4874 49.6699C20.6786 49.3988 20.7868 49.0204 20.7868 48.6193V40.1472C20.7868 39.5909 20.5776 39.0854 20.2529 38.8567C19.9264 38.6307 19.5458 38.7239 19.2824 39.0967L10.8658 50.9548L2.45095 39.0967C2.18579 38.7239 1.80518 38.6279 1.48049 38.8567C1.154 39.0854 0.944757 39.5909 0.944757 40.1472V48.6193C0.944757 49.0204 1.05479 49.3988 1.24239 49.6699L10.2615 62.378C10.6042 62.8609 11.1273 62.8609 11.4683 62.378Z" fill="white"/>
</g>
</g>
<g id="Group_3">
<g id="Group_4">
<path id="Vector_2" d="M11.4683 44.0216L20.4874 31.3134C20.6786 31.0423 20.7868 30.6639 20.7868 30.2629V21.7908C20.7868 21.2345 20.5776 20.729 20.2529 20.5002C19.9264 20.2743 19.5458 20.3675 19.2824 20.7403L10.8658 32.5984L2.45095 20.7403C2.18579 20.3675 1.80518 20.2715 1.48049 20.5002C1.154 20.729 0.944757 21.2345 0.944757 21.7908V30.2629C0.944757 30.6639 1.05479 31.0423 1.24239 31.3134L10.2615 44.0216C10.6042 44.5045 11.1273 44.5045 11.4683 44.0216Z" fill="white" fill-opacity="0.4"/>
<path id="Vector_3" d="M11.4683 23.7611L20.4874 11.0529C20.6786 10.7818 20.7868 10.4034 20.7868 10.0024V1.5303C20.7868 0.973969 20.5776 0.468467 20.2529 0.23972C19.9264 0.0137979 19.5458 0.106991 19.2824 0.479763L10.8658 12.3379L2.45095 0.479763C2.18579 0.106991 1.80518 0.0109739 1.48049 0.23972C1.154 0.468467 0.944757 0.973969 0.944757 1.5303V10.0024C0.944757 10.4034 1.05479 10.7818 1.24239 11.0529L10.2615 23.7611C10.6042 24.244 11.1273 24.244 11.4683 23.7611Z" fill="white" fill-opacity="0.1"/>
</g>
</g>
</g>
</svg>
