<svg xmlns="http://www.w3.org/2000/svg" xmlns:xlink="http://www.w3.org/1999/xlink" width="1920" zoomAndPan="magnify" viewBox="0 0 1440 809.999993" height="1080" preserveAspectRatio="xMidYMid meet" version="1.0"><defs><g/><clipPath id="2c4b5e56fd"><path d="M 81 250.300781 L 390.75 250.300781 L 390.75 560.050781 L 81 560.050781 Z M 81 250.300781 " clip-rule="nonzero"/></clipPath></defs><rect x="-144" width="1728" fill="#ffffff" y="-80.999999" height="971.999992" fill-opacity="1"/><rect x="-144" width="1728" fill="#ffffff" y="-80.999999" height="971.999992" fill-opacity="1"/><rect x="-144" width="1728" fill="#07a5c3" y="-80.999999" height="971.999992" fill-opacity="1"/><g clip-path="url(#2c4b5e56fd)"><path fill="#f14902" d="M 235.875 560.050781 C 150.476562 560.050781 81 490.570312 81 405.175781 C 81 319.777344 150.476562 250.300781 235.875 250.300781 C 321.273438 250.300781 390.75 319.777344 390.75 405.175781 C 390.75 490.570312 321.273438 560.050781 235.875 560.050781 Z M 235.875 560.050781 " fill-opacity="1" fill-rule="nonzero"/></g><path fill="#f6e7d8" d="M 192.917969 446.261719 C 190.621094 446.261719 188.308594 445.535156 186.347656 444.03125 L 147.335938 414.175781 C 144.695312 412.152344 143.128906 409.027344 143.089844 405.699219 C 143.050781 402.371094 144.542969 399.214844 147.140625 397.132812 L 185.347656 366.46875 C 190.011719 362.722656 196.828125 363.472656 200.570312 368.136719 C 204.308594 372.800781 203.566406 379.617188 198.902344 383.359375 L 171.46875 405.375 L 199.507812 426.835938 C 204.261719 430.46875 205.164062 437.269531 201.527344 442.015625 C 199.394531 444.800781 196.175781 446.261719 192.917969 446.261719 Z M 192.917969 446.261719 " fill-opacity="1" fill-rule="nonzero"/><path fill="#f6e7d8" d="M 278.832031 446.261719 C 275.574219 446.261719 272.355469 444.800781 270.222656 442.015625 C 266.585938 437.269531 267.492188 430.46875 272.242188 426.835938 L 300.28125 405.375 L 272.847656 383.359375 C 268.1875 379.617188 267.4375 372.800781 271.179688 368.136719 C 274.929688 363.472656 281.742188 362.726562 286.402344 366.46875 L 324.609375 397.132812 C 327.207031 399.214844 328.699219 402.371094 328.660156 405.699219 C 328.621094 409.027344 327.054688 412.152344 324.414062 414.175781 L 285.402344 444.03125 C 283.441406 445.535156 281.128906 446.261719 278.832031 446.261719 Z M 278.832031 446.261719 " fill-opacity="1" fill-rule="nonzero"/><path fill="#f6e7d8" d="M 218.269531 466.992188 C 217.332031 466.992188 216.378906 466.871094 215.429688 466.613281 C 209.65625 465.050781 206.246094 459.101562 207.808594 453.328125 L 235.457031 351.351562 C 237.019531 345.578125 242.964844 342.167969 248.742188 343.730469 C 254.511719 345.296875 257.925781 351.246094 256.359375 357.015625 L 228.714844 458.996094 C 227.40625 463.816406 223.035156 466.992188 218.269531 466.992188 Z M 218.269531 466.992188 " fill-opacity="1" fill-rule="nonzero"/><g fill="#1c191a" fill-opacity="1"><g transform="translate(411.27741, 417.582302)"><g><path d="M 88.859375 -66 L 77.234375 -66 C 76.296875 -70.425781 74.5 -74.15625 71.84375 -77.1875 C 69.1875 -80.21875 65.984375 -82.515625 62.234375 -84.078125 C 58.492188 -85.640625 54.5 -86.421875 50.25 -86.421875 C 44.4375 -86.421875 39.175781 -84.953125 34.46875 -82.015625 C 29.769531 -79.078125 26.035156 -74.75 23.265625 -69.03125 C 20.503906 -63.320312 19.125 -56.3125 19.125 -48 C 19.125 -39.6875 20.503906 -32.671875 23.265625 -26.953125 C 26.035156 -21.234375 29.769531 -16.90625 34.46875 -13.96875 C 39.175781 -11.03125 44.4375 -9.5625 50.25 -9.5625 C 54.5 -9.5625 58.492188 -10.34375 62.234375 -11.90625 C 65.984375 -13.46875 69.1875 -15.765625 71.84375 -18.796875 C 74.5 -21.828125 76.296875 -25.5625 77.234375 -30 L 88.859375 -30 C 87.671875 -23.4375 85.25 -17.816406 81.59375 -13.140625 C 77.9375 -8.472656 73.40625 -4.894531 68 -2.40625 C 62.601562 0.0703125 56.6875 1.3125 50.25 1.3125 C 42.0625 1.3125 34.78125 -0.6875 28.40625 -4.6875 C 22.03125 -8.6875 17.015625 -14.375 13.359375 -21.75 C 9.703125 -29.125 7.875 -37.875 7.875 -48 C 7.875 -58.125 9.703125 -66.867188 13.359375 -74.234375 C 17.015625 -81.609375 22.03125 -87.296875 28.40625 -91.296875 C 34.78125 -95.296875 42.0625 -97.296875 50.25 -97.296875 C 56.6875 -97.296875 62.601562 -96.050781 68 -93.5625 C 73.40625 -91.082031 77.9375 -87.503906 81.59375 -82.828125 C 85.25 -78.160156 87.671875 -72.550781 88.859375 -66 Z M 88.859375 -66 "/></g></g></g><g fill="#1c191a" fill-opacity="1"><g transform="translate(509.903312, 417.582302)"><g><path d="M 15.5625 0 L 3.375 0 L 38.625 -95.984375 L 50.625 -95.984375 L 85.859375 0 L 73.671875 0 L 64.03125 -27.1875 L 25.21875 -27.1875 Z M 28.875 -37.5 L 60.375 -37.5 L 45 -80.796875 L 44.25 -80.796875 Z M 28.875 -37.5 "/></g></g></g><g fill="#1c191a" fill-opacity="1"><g transform="translate(601.780209, 417.582302)"><g><path d="M 11.625 0 L 11.625 -95.984375 L 44.0625 -95.984375 C 51.5625 -95.984375 57.710938 -94.707031 62.515625 -92.15625 C 67.328125 -89.613281 70.890625 -86.125 73.203125 -81.6875 C 75.515625 -77.25 76.671875 -72.207031 76.671875 -66.5625 C 76.671875 -60.1875 75.207031 -54.628906 72.28125 -49.890625 C 69.363281 -45.160156 64.847656 -41.75 58.734375 -39.65625 L 80.421875 0 L 66.921875 0 L 46.6875 -37.546875 C 45.90625 -37.515625 45.09375 -37.5 44.25 -37.5 L 23.25 -37.5 L 23.25 0 Z M 23.25 -48 L 43.875 -48 C 51.5625 -48 57.046875 -49.65625 60.328125 -52.96875 C 63.609375 -56.28125 65.25 -60.8125 65.25 -66.5625 C 65.25 -72.332031 63.597656 -76.957031 60.296875 -80.4375 C 57.003906 -83.925781 51.46875 -85.671875 43.6875 -85.671875 L 23.25 -85.671875 Z M 23.25 -48 "/></g></g></g><g fill="#1c191a" fill-opacity="1"><g transform="translate(688.782857, 417.582302)"><g><path d="M 11.625 0 L 11.625 -95.984375 L 23.25 -95.984375 L 23.25 -10.3125 L 67.859375 -10.3125 L 67.859375 0 Z M 11.625 0 "/></g></g></g><g fill="#1c191a" fill-opacity="1"><g transform="translate(765.661988, 417.582302)"><g><path d="M 92.609375 -48 C 92.609375 -37.875 90.78125 -29.125 87.125 -21.75 C 83.46875 -14.375 78.453125 -8.6875 72.078125 -4.6875 C 65.710938 -0.6875 58.4375 1.3125 50.25 1.3125 C 42.0625 1.3125 34.78125 -0.6875 28.40625 -4.6875 C 22.03125 -8.6875 17.015625 -14.375 13.359375 -21.75 C 9.703125 -29.125 7.875 -37.875 7.875 -48 C 7.875 -58.125 9.703125 -66.867188 13.359375 -74.234375 C 17.015625 -81.609375 22.03125 -87.296875 28.40625 -91.296875 C 34.78125 -95.296875 42.0625 -97.296875 50.25 -97.296875 C 58.4375 -97.296875 65.710938 -95.296875 72.078125 -91.296875 C 78.453125 -87.296875 83.46875 -81.609375 87.125 -74.234375 C 90.78125 -66.867188 92.609375 -58.125 92.609375 -48 Z M 81.359375 -48 C 81.359375 -56.3125 79.972656 -63.320312 77.203125 -69.03125 C 74.441406 -74.75 70.710938 -79.078125 66.015625 -82.015625 C 61.316406 -84.953125 56.0625 -86.421875 50.25 -86.421875 C 44.4375 -86.421875 39.175781 -84.953125 34.46875 -82.015625 C 29.769531 -79.078125 26.035156 -74.75 23.265625 -69.03125 C 20.503906 -63.320312 19.125 -56.3125 19.125 -48 C 19.125 -39.6875 20.503906 -32.671875 23.265625 -26.953125 C 26.035156 -21.234375 29.769531 -16.90625 34.46875 -13.96875 C 39.175781 -11.03125 44.4375 -9.5625 50.25 -9.5625 C 56.0625 -9.5625 61.316406 -11.03125 66.015625 -13.96875 C 70.710938 -16.90625 74.441406 -21.234375 77.203125 -26.953125 C 79.972656 -32.671875 81.359375 -39.6875 81.359375 -48 Z M 81.359375 -48 "/></g></g></g><g fill="#1c191a" fill-opacity="1"><g transform="translate(868.787209, 417.582302)"><g><path d="M 64.125 -71.984375 C 63.5625 -76.734375 61.28125 -80.421875 57.28125 -83.046875 C 53.28125 -85.671875 48.375 -86.984375 42.5625 -86.984375 C 36.1875 -86.984375 31.0625 -85.472656 27.1875 -82.453125 C 23.3125 -79.441406 21.375 -75.640625 21.375 -71.046875 C 21.375 -67.617188 22.425781 -64.847656 24.53125 -62.734375 C 26.644531 -60.628906 29.144531 -58.988281 32.03125 -57.8125 C 34.925781 -56.644531 37.5625 -55.75 39.9375 -55.125 L 49.6875 -52.5 C 52.1875 -51.84375 54.972656 -50.9375 58.046875 -49.78125 C 61.128906 -48.625 64.082031 -47.050781 66.90625 -45.0625 C 69.726562 -43.082031 72.0625 -40.546875 73.90625 -37.453125 C 75.75 -34.359375 76.671875 -30.5625 76.671875 -26.0625 C 76.671875 -20.875 75.316406 -16.1875 72.609375 -12 C 69.910156 -7.8125 65.976562 -4.484375 60.8125 -2.015625 C 55.644531 0.453125 49.375 1.6875 42 1.6875 C 31.6875 1.6875 23.5 -0.75 17.4375 -5.625 C 11.375 -10.5 8.0625 -16.875 7.5 -24.75 L 19.5 -24.75 C 19.8125 -21.125 21.035156 -18.128906 23.171875 -15.765625 C 25.316406 -13.410156 28.035156 -11.660156 31.328125 -10.515625 C 34.628906 -9.378906 38.1875 -8.8125 42 -8.8125 C 46.4375 -8.8125 50.421875 -9.535156 53.953125 -10.984375 C 57.484375 -12.441406 60.28125 -14.472656 62.34375 -17.078125 C 64.40625 -19.691406 65.4375 -22.75 65.4375 -26.25 C 65.4375 -29.4375 64.546875 -32.03125 62.765625 -34.03125 C 60.984375 -36.03125 58.640625 -37.65625 55.734375 -38.90625 C 52.828125 -40.15625 49.6875 -41.25 46.3125 -42.1875 L 34.5 -45.5625 C 27 -47.71875 21.0625 -50.796875 16.6875 -54.796875 C 12.3125 -58.796875 10.125 -64.023438 10.125 -70.484375 C 10.125 -75.859375 11.582031 -80.550781 14.5 -84.5625 C 17.425781 -88.582031 21.363281 -91.707031 26.3125 -93.9375 C 31.269531 -96.175781 36.8125 -97.296875 42.9375 -97.296875 C 49.125 -97.296875 54.625 -96.191406 59.4375 -93.984375 C 64.25 -91.785156 68.066406 -88.78125 70.890625 -84.96875 C 73.710938 -81.15625 75.203125 -76.828125 75.359375 -71.984375 Z M 64.125 -71.984375 "/></g></g></g><g fill="#1c191a" fill-opacity="1"><g transform="translate(955.602372, 417.582302)"><g/></g></g><g fill="#1c191a" fill-opacity="1"><g transform="translate(995.362075, 417.582302)"><g><path d="M 11.625 0 L 11.625 -95.984375 L 23.25 -95.984375 L 23.25 -10.3125 L 67.859375 -10.3125 L 67.859375 0 Z M 11.625 0 "/></g></g></g><g fill="#1c191a" fill-opacity="1"><g transform="translate(1072.241206, 417.582302)"><g><path d="M 11.625 0 L 11.625 -95.984375 L 69.546875 -95.984375 L 69.546875 -85.671875 L 23.25 -85.671875 L 23.25 -53.25 L 66.5625 -53.25 L 66.5625 -42.9375 L 23.25 -42.9375 L 23.25 -10.3125 L 70.296875 -10.3125 L 70.296875 0 Z M 11.625 0 "/></g></g></g><g fill="#1c191a" fill-opacity="1"><g transform="translate(1153.807163, 417.582302)"><g><path d="M 23.25 -95.984375 L 23.25 0 L 11.625 0 L 11.625 -95.984375 Z M 23.25 -95.984375 "/></g></g></g><g fill="#1c191a" fill-opacity="1"><g transform="translate(1191.317167, 417.582302)"><g><path d="M 6.375 -85.671875 L 6.375 -95.984375 L 78.359375 -95.984375 L 78.359375 -85.671875 L 48.1875 -85.671875 L 48.1875 0 L 36.5625 0 L 36.5625 -85.671875 Z M 6.375 -85.671875 "/></g></g></g><g fill="#1c191a" fill-opacity="1"><g transform="translate(1278.694801, 417.582302)"><g><path d="M 11.625 0 L 11.625 -95.984375 L 69.546875 -95.984375 L 69.546875 -85.671875 L 23.25 -85.671875 L 23.25 -53.25 L 66.5625 -53.25 L 66.5625 -42.9375 L 23.25 -42.9375 L 23.25 -10.3125 L 70.296875 -10.3125 L 70.296875 0 Z M 11.625 0 "/></g></g></g><g fill="#1c191a" fill-opacity="1"><g transform="translate(637.615998, 519.89129)"><g><path d="M 4.171875 0 L 4.171875 -48 L 35.953125 -48 L 35.953125 -39.640625 L 14.328125 -39.640625 L 14.328125 -28.203125 L 33.84375 -28.203125 L 33.84375 -19.828125 L 14.328125 -19.828125 L 14.328125 0 Z M 4.171875 0 "/></g></g></g><g fill="#1c191a" fill-opacity="1"><g transform="translate(679.511478, 519.89129)"><g><path d="M 3.984375 0 L 3.984375 -36 L 13.671875 -36 L 13.671875 -29.71875 L 14.046875 -29.71875 C 14.703125 -31.957031 15.796875 -33.648438 17.328125 -34.796875 C 18.867188 -35.941406 20.65625 -36.515625 22.6875 -36.515625 C 23.65625 -36.515625 24.550781 -36.394531 25.375 -36.15625 C 26.207031 -35.925781 26.953125 -35.609375 27.609375 -35.203125 L 24.609375 -26.953125 C 24.140625 -27.191406 23.628906 -27.390625 23.078125 -27.546875 C 22.523438 -27.710938 21.90625 -27.796875 21.21875 -27.796875 C 19.195312 -27.796875 17.488281 -27.109375 16.09375 -25.734375 C 14.695312 -24.359375 13.988281 -22.570312 13.96875 -20.375 L 13.96875 0 Z M 3.984375 0 "/></g></g></g><g fill="#1c191a" fill-opacity="1"><g transform="translate(711.096166, 519.89129)"><g><path d="M 20.25 0.703125 C 16.613281 0.703125 13.46875 -0.0703125 10.8125 -1.625 C 8.164062 -3.1875 6.125 -5.359375 4.6875 -8.140625 C 3.25 -10.929688 2.53125 -14.171875 2.53125 -17.859375 C 2.53125 -21.578125 3.25 -24.832031 4.6875 -27.625 C 6.125 -30.414062 8.164062 -32.585938 10.8125 -34.140625 C 13.46875 -35.691406 16.613281 -36.46875 20.25 -36.46875 C 23.894531 -36.46875 27.039062 -35.691406 29.6875 -34.140625 C 32.332031 -32.585938 34.375 -30.414062 35.8125 -27.625 C 37.25 -24.832031 37.96875 -21.578125 37.96875 -17.859375 C 37.96875 -14.171875 37.25 -10.929688 35.8125 -8.140625 C 34.375 -5.359375 32.332031 -3.1875 29.6875 -1.625 C 27.039062 -0.0703125 23.894531 0.703125 20.25 0.703125 Z M 20.296875 -7.03125 C 22.765625 -7.03125 24.632812 -8.0625 25.90625 -10.125 C 27.1875 -12.1875 27.828125 -14.789062 27.828125 -17.9375 C 27.828125 -21.070312 27.1875 -23.675781 25.90625 -25.75 C 24.632812 -27.820312 22.765625 -28.859375 20.296875 -28.859375 C 17.785156 -28.859375 15.890625 -27.820312 14.609375 -25.75 C 13.328125 -23.675781 12.6875 -21.070312 12.6875 -17.9375 C 12.6875 -14.789062 13.328125 -12.1875 14.609375 -10.125 C 15.890625 -8.0625 17.785156 -7.03125 20.296875 -7.03125 Z M 20.296875 -7.03125 "/></g></g></g><g fill="#1c191a" fill-opacity="1"><g transform="translate(754.889762, 519.89129)"><g><path d="M 13.96875 -20.8125 L 13.96875 0 L 3.984375 0 L 3.984375 -36 L 13.5 -36 L 13.5 -29.65625 L 13.921875 -29.65625 C 14.734375 -31.75 16.070312 -33.40625 17.9375 -34.625 C 19.8125 -35.851562 22.082031 -36.46875 24.75 -36.46875 C 28.5 -36.46875 31.503906 -35.257812 33.765625 -32.84375 C 36.035156 -30.4375 37.171875 -27.128906 37.171875 -22.921875 L 37.171875 0 L 27.1875 0 L 27.1875 -21.140625 C 27.207031 -23.347656 26.644531 -25.070312 25.5 -26.3125 C 24.363281 -27.550781 22.796875 -28.171875 20.796875 -28.171875 C 18.773438 -28.171875 17.132812 -27.523438 15.875 -26.234375 C 14.625 -24.953125 13.988281 -23.144531 13.96875 -20.8125 Z M 13.96875 -20.8125 "/></g></g></g><g fill="#1c191a" fill-opacity="1"><g transform="translate(799.222325, 519.89129)"><g><path d="M 23.140625 -36 L 23.140625 -28.5 L 16.359375 -28.5 L 16.359375 -11.0625 C 16.359375 -9.6875 16.671875 -8.753906 17.296875 -8.265625 C 17.921875 -7.785156 18.734375 -7.546875 19.734375 -7.546875 C 20.203125 -7.546875 20.671875 -7.585938 21.140625 -7.671875 C 21.609375 -7.765625 21.96875 -7.832031 22.21875 -7.875 L 23.796875 -0.453125 C 23.296875 -0.296875 22.59375 -0.113281 21.6875 0.09375 C 20.78125 0.3125 19.675781 0.445312 18.375 0.5 C 14.75 0.65625 11.835938 -0.128906 9.640625 -1.859375 C 7.453125 -3.585938 6.363281 -6.21875 6.375 -9.75 L 6.375 -28.5 L 1.453125 -28.5 L 1.453125 -36 L 6.375 -36 L 6.375 -44.625 L 16.359375 -44.625 L 16.359375 -36 Z M 23.140625 -36 "/></g></g></g><g fill="#1c191a" fill-opacity="1"><g transform="translate(828.158996, 519.89129)"><g/></g></g><g fill="#1c191a" fill-opacity="1"><g transform="translate(846.761448, 519.89129)"><g><path d="M 4.171875 0 L 4.171875 -48 L 36.515625 -48 L 36.515625 -39.640625 L 14.328125 -39.640625 L 14.328125 -28.203125 L 34.859375 -28.203125 L 34.859375 -19.828125 L 14.328125 -19.828125 L 14.328125 -8.375 L 36.609375 -8.375 L 36.609375 0 Z M 4.171875 0 "/></g></g></g><g fill="#1c191a" fill-opacity="1"><g transform="translate(890.484752, 519.89129)"><g><path d="M 13.96875 -20.8125 L 13.96875 0 L 3.984375 0 L 3.984375 -36 L 13.5 -36 L 13.5 -29.65625 L 13.921875 -29.65625 C 14.734375 -31.75 16.070312 -33.40625 17.9375 -34.625 C 19.8125 -35.851562 22.082031 -36.46875 24.75 -36.46875 C 28.5 -36.46875 31.503906 -35.257812 33.765625 -32.84375 C 36.035156 -30.4375 37.171875 -27.128906 37.171875 -22.921875 L 37.171875 0 L 27.1875 0 L 27.1875 -21.140625 C 27.207031 -23.347656 26.644531 -25.070312 25.5 -26.3125 C 24.363281 -27.550781 22.796875 -28.171875 20.796875 -28.171875 C 18.773438 -28.171875 17.132812 -27.523438 15.875 -26.234375 C 14.625 -24.953125 13.988281 -23.144531 13.96875 -20.8125 Z M 13.96875 -20.8125 "/></g></g></g><g fill="#1c191a" fill-opacity="1"><g transform="translate(934.817315, 519.89129)"><g><path d="M 17.25 0.59375 C 14.519531 0.59375 12.050781 -0.113281 9.84375 -1.53125 C 7.644531 -2.945312 5.894531 -5.035156 4.59375 -7.796875 C 3.300781 -10.554688 2.65625 -13.941406 2.65625 -17.953125 C 2.65625 -22.078125 3.320312 -25.507812 4.65625 -28.25 C 5.988281 -31 7.757812 -33.054688 9.96875 -34.421875 C 12.1875 -35.785156 14.609375 -36.46875 17.234375 -36.46875 C 19.242188 -36.46875 20.925781 -36.128906 22.28125 -35.453125 C 23.632812 -34.773438 24.726562 -33.9375 25.5625 -32.9375 C 26.394531 -31.9375 27.03125 -30.941406 27.46875 -29.953125 L 27.78125 -29.953125 L 27.78125 -48 L 37.734375 -48 L 37.734375 0 L 27.890625 0 L 27.890625 -5.765625 L 27.46875 -5.765625 C 27.019531 -4.765625 26.363281 -3.773438 25.5 -2.796875 C 24.644531 -1.828125 23.539062 -1.019531 22.1875 -0.375 C 20.832031 0.269531 19.1875 0.59375 17.25 0.59375 Z M 20.421875 -7.359375 C 22.828125 -7.359375 24.6875 -8.332031 26 -10.28125 C 27.320312 -12.226562 27.984375 -14.800781 27.984375 -18 C 27.984375 -21.21875 27.328125 -23.773438 26.015625 -25.671875 C 24.703125 -27.578125 22.835938 -28.53125 20.421875 -28.53125 C 17.953125 -28.53125 16.070312 -27.554688 14.78125 -25.609375 C 13.488281 -23.660156 12.84375 -21.125 12.84375 -18 C 12.84375 -14.863281 13.488281 -12.304688 14.78125 -10.328125 C 16.082031 -8.347656 17.960938 -7.359375 20.421875 -7.359375 Z M 20.421875 -7.359375 "/></g></g></g><g fill="#1c191a" fill-opacity="1"><g transform="translate(980.040372, 519.89129)"><g/></g></g><g fill="#1c191a" fill-opacity="1"><g transform="translate(998.642835, 519.89129)"><g><path d="M 21.1875 0 L 4.171875 0 L 4.171875 -48 L 21.328125 -48 C 26.160156 -48 30.320312 -47.039062 33.8125 -45.125 C 37.300781 -43.21875 39.984375 -40.472656 41.859375 -36.890625 C 43.734375 -33.316406 44.671875 -29.035156 44.671875 -24.046875 C 44.671875 -19.046875 43.726562 -14.75 41.84375 -11.15625 C 39.96875 -7.5625 37.273438 -4.800781 33.765625 -2.875 C 30.253906 -0.957031 26.0625 0 21.1875 0 Z M 14.328125 -8.703125 L 20.765625 -8.703125 C 25.285156 -8.703125 28.710938 -9.921875 31.046875 -12.359375 C 33.378906 -14.796875 34.546875 -18.691406 34.546875 -24.046875 C 34.546875 -29.378906 33.378906 -33.253906 31.046875 -35.671875 C 28.710938 -38.097656 25.296875 -39.3125 20.796875 -39.3125 L 14.328125 -39.3125 Z M 14.328125 -8.703125 "/></g></g></g><g fill="#1c191a" fill-opacity="1"><g transform="translate(1049.935222, 519.89129)"><g><path d="M 20.390625 0.703125 C 16.703125 0.703125 13.519531 -0.0507812 10.84375 -1.5625 C 8.175781 -3.070312 6.125 -5.210938 4.6875 -7.984375 C 3.25 -10.753906 2.53125 -14.039062 2.53125 -17.84375 C 2.53125 -21.539062 3.25 -24.785156 4.6875 -27.578125 C 6.125 -30.378906 8.148438 -32.5625 10.765625 -34.125 C 13.390625 -35.6875 16.46875 -36.46875 20 -36.46875 C 23.164062 -36.46875 26.023438 -35.796875 28.578125 -34.453125 C 31.140625 -33.109375 33.171875 -31.082031 34.671875 -28.375 C 36.171875 -25.664062 36.921875 -22.269531 36.921875 -18.1875 L 36.921875 -15.453125 L 12.40625 -15.453125 L 12.40625 -15.421875 C 12.40625 -12.734375 13.140625 -10.613281 14.609375 -9.0625 C 16.078125 -7.519531 18.0625 -6.75 20.5625 -6.75 C 22.226562 -6.75 23.671875 -7.097656 24.890625 -7.796875 C 26.109375 -8.503906 26.96875 -9.546875 27.46875 -10.921875 L 36.703125 -10.3125 C 36.003906 -6.96875 34.222656 -4.296875 31.359375 -2.296875 C 28.503906 -0.296875 24.847656 0.703125 20.390625 0.703125 Z M 12.40625 -21.640625 L 27.515625 -21.640625 C 27.503906 -23.773438 26.816406 -25.535156 25.453125 -26.921875 C 24.097656 -28.316406 22.332031 -29.015625 20.15625 -29.015625 C 17.9375 -29.015625 16.113281 -28.296875 14.6875 -26.859375 C 13.269531 -25.421875 12.507812 -23.679688 12.40625 -21.640625 Z M 12.40625 -21.640625 "/></g></g></g><g fill="#1c191a" fill-opacity="1"><g transform="translate(1092.674319, 519.89129)"><g><path d="M 37.546875 -36 L 24.96875 0 L 13.71875 0 L 1.125 -36 L 11.671875 -36 L 19.15625 -10.25 L 19.53125 -10.25 L 26.984375 -36 Z M 37.546875 -36 "/></g></g></g></svg>