<?xml version="1.0" encoding="utf-8"?>
<!-- Generator: Adobe Illustrator 27.6.1, SVG Export Plug-In . SVG Version: 6.00 Build 0)  -->
<svg version="1.1" xmlns="http://www.w3.org/2000/svg" xmlns:xlink="http://www.w3.org/1999/xlink" x="0px" y="0px"
	 viewBox="0 0 1920 1080" style="enable-background:new 0 0 1920 1080;" xml:space="preserve">
<style type="text/css">
	.st0{display:none;}
	.st1{display:inline;}
	.st2{fill:#FFFFFF;}
	.st3{fill:#A558C8;}
	.st4{fill:#0E2A39;}
</style>
<g id="Camada_1" class="st0">
	<g id="zXFLjt.tif" class="st1">
		
			<image style="overflow:visible;" width="867" height="451" id="Layer_0_00000009553099142346941930000007797866849920912021_" xlink:href="785BA04CA0E50B91.png"  transform="matrix(1.5402 0 0 1.5402 292.3077 192.6768)">
		</image>
	</g>
</g>
<g id="Camada_2">
	<g>
		<path class="st2" d="M873.1,1484.1l-134.7,96.2c-1.2,0.9-1.2,2.7,0,3.5l134.7,96.2c1.2,0.8,2.8,0,2.8-1.5v-35.2
			c0-0.8-0.4-1.5-1.1-2l-82.6-56.3c-2.1-1.4-2.1-4.5,0-5.9l82.6-56.3c0.7-0.4,1.1-1.2,1.1-2v-35.2
			C875.9,1484.1,874.3,1483.3,873.1,1484.1z"/>
		<path class="st2" d="M906.7,1730.1l108.9-287.1c0.2-0.6,0.8-0.9,1.4-0.9h34.9c1,0,1.7,1,1.4,2l-108.9,287.1
			c-0.2,0.6-0.8,0.9-1.4,0.9H908C907,1732.1,906.3,1731.1,906.7,1730.1z"/>
		<path class="st2" d="M1088.8,1484.1l134.7,96.2c1.2,0.9,1.2,2.7,0,3.5l-134.7,96.2c-1.2,0.8-2.8,0-2.8-1.5v-35.2
			c0-0.8,0.4-1.5,1.1-2l80.8-55.1c3-2,3-6.4,0-8.4l-80.8-55.1c-0.7-0.4-1.1-1.2-1.1-2v-35.2
			C1085.9,1484.1,1087.6,1483.3,1088.8,1484.1z"/>
	</g>
	<g>
		<g>
			<path class="st2" d="M404.8,1837h-28c-0.5-3.6-1.6-6.8-3.1-9.7c-1.6-2.8-3.6-5.3-6.1-7.3c-2.5-2-5.3-3.5-8.5-4.6
				c-3.2-1.1-6.7-1.6-10.5-1.6c-6.8,0-12.7,1.7-17.7,5c-5,3.3-8.9,8.2-11.7,14.6c-2.8,6.4-4.2,14.1-4.2,23.2
				c0,9.3,1.4,17.2,4.2,23.5c2.8,6.3,6.7,11.1,11.7,14.4c5,3.2,10.8,4.9,17.5,4.9c3.7,0,7.1-0.5,10.3-1.5c3.2-1,6-2.4,8.5-4.3
				c2.5-1.9,4.5-4.2,6.2-6.9c1.6-2.7,2.8-5.8,3.4-9.3l28,0.1c-0.7,6-2.5,11.8-5.4,17.4c-2.9,5.6-6.7,10.5-11.6,14.9
				c-4.8,4.4-10.6,7.8-17.3,10.4c-6.7,2.5-14.2,3.8-22.6,3.8c-11.7,0-22.1-2.6-31.3-7.9c-9.2-5.3-16.4-12.9-21.7-22.9
				c-5.3-10-8-22.1-8-36.4c0-14.3,2.7-26.4,8.1-36.4c5.4-10,12.7-17.7,21.9-22.9c9.2-5.3,19.6-7.9,31.1-7.9c7.6,0,14.6,1.1,21.1,3.2
				c6.5,2.1,12.3,5.2,17.3,9.3c5,4.1,9.1,9,12.3,14.9C401.8,1822.7,403.9,1829.4,404.8,1837z"/>
			<path class="st2" d="M458,1922.1h-29.7l45.2-130.9h35.7l45.1,130.9h-29.7l-32.8-101h-1L458,1922.1z M456.1,1870.6h70.1v21.6
				h-70.1V1870.6z"/>
			<path class="st2" d="M580.8,1922.1v-130.9h51.6c9.9,0,18.3,1.8,25.3,5.3c7,3.5,12.4,8.5,16,14.9c3.7,6.4,5.5,13.9,5.5,22.6
				c0,8.7-1.9,16.2-5.6,22.4c-3.8,6.2-9.2,11-16.3,14.4c-7.1,3.3-15.7,5-25.7,5h-34.6v-22.2h30.1c5.3,0,9.7-0.7,13.2-2.2
				c3.5-1.4,6.1-3.6,7.8-6.5c1.7-2.9,2.6-6.5,2.6-10.8c0-4.3-0.9-8-2.6-11c-1.7-3-4.3-5.3-7.9-6.8s-7.9-2.3-13.3-2.3h-18.7v108.3
				H580.8z M651.5,1862.5l32.5,59.6h-30.6l-31.8-59.6H651.5z"/>
			<path class="st2" d="M709.8,1922.1v-130.9h27.7v108.1h56.1v22.8H709.8z"/>
			<path class="st2" d="M943,1856.6c0,14.3-2.7,26.4-8.1,36.4c-5.4,10-12.7,17.7-22,22.9c-9.3,5.3-19.7,7.9-31.2,7.9
				c-11.6,0-22.1-2.6-31.3-7.9c-9.2-5.3-16.6-12.9-21.9-22.9c-5.4-10-8.1-22.1-8.1-36.4c0-14.3,2.7-26.4,8.1-36.4
				c5.4-10,12.7-17.7,21.9-22.9c9.2-5.3,19.7-7.9,31.3-7.9c11.5,0,22,2.6,31.2,7.9c9.3,5.3,16.6,12.9,22,22.9
				C940.3,1830.2,943,1842.4,943,1856.6z M915,1856.6c0-9.2-1.4-17-4.1-23.4s-6.6-11.2-11.6-14.4c-5-3.3-10.8-4.9-17.5-4.9
				s-12.5,1.6-17.5,4.9c-5,3.3-8.9,8.1-11.6,14.4s-4.1,14.1-4.1,23.4s1.4,17,4.1,23.4s6.6,11.2,11.6,14.4s10.8,4.9,17.5,4.9
				s12.5-1.6,17.5-4.9s8.9-8.1,11.6-14.4S915,1865.9,915,1856.6z"/>
			<path class="st2" d="M1045.3,1828.8c-0.5-5.2-2.7-9.2-6.6-12c-3.9-2.9-9.1-4.3-15.8-4.3c-4.5,0-8.3,0.6-11.4,1.9s-5.5,3-7.1,5.2
				c-1.6,2.2-2.5,4.7-2.5,7.5c-0.1,2.3,0.4,4.4,1.5,6.1c1.1,1.7,2.6,3.2,4.5,4.5c1.9,1.3,4.1,2.3,6.6,3.3c2.5,0.9,5.2,1.7,8.1,2.3
				l11.8,2.8c5.7,1.3,11,3,15.7,5.1c4.8,2.1,8.9,4.8,12.4,7.9c3.5,3.1,6.2,6.8,8.2,11c1.9,4.2,2.9,9.1,3,14.5c0,8-2.1,14.9-6.1,20.8
				c-4,5.9-9.8,10.4-17.4,13.6c-7.6,3.2-16.7,4.8-27.3,4.8c-10.6,0-19.8-1.6-27.6-4.9c-7.8-3.2-13.9-8-18.3-14.4
				c-4.4-6.4-6.7-14.3-6.9-23.7h26.8c0.3,4.4,1.6,8,3.8,11c2.2,2.9,5.2,5.1,9,6.6s8,2.2,12.8,2.2c4.7,0,8.8-0.7,12.2-2
				c3.5-1.4,6.2-3.3,8.1-5.7c1.9-2.4,2.9-5.2,2.9-8.4c0-2.9-0.9-5.4-2.6-7.4c-1.7-2-4.2-3.7-7.5-5.1c-3.3-1.4-7.3-2.7-12.1-3.8
				l-14.3-3.6c-11-2.7-19.8-6.9-26.1-12.6c-6.4-5.7-9.6-13.4-9.5-23.1c0-7.9,2.1-14.9,6.4-20.8c4.3-5.9,10.2-10.5,17.7-13.9
				c7.5-3.3,16-5,25.6-5c9.7,0,18.2,1.7,25.5,5c7.3,3.3,12.9,7.9,17,13.9c4,5.9,6.1,12.8,6.3,20.6H1045.3z"/>
			<path class="st2" d="M1155.5,1922.1v-130.9h27.7v108.1h56.1v22.8H1155.5z"/>
			<path class="st2" d="M1268.4,1922.1v-130.9h88.2v22.8h-60.5v31.2h56v22.8h-56v31.3h60.8v22.8H1268.4z"/>
			<path class="st2" d="M1417.2,1791.2v130.9h-27.7v-130.9H1417.2z"/>
			<path class="st2" d="M1445.8,1814v-22.8h107.5v22.8h-40.1v108.1h-27.4V1814H1445.8z"/>
			<path class="st2" d="M1581.9,1922.1v-130.9h88.2v22.8h-60.5v31.2h56v22.8h-56v31.3h60.8v22.8H1581.9z"/>
		</g>
	</g>
	<g>
		<g>
			<path class="st2" d="M512,2024.1v-43.6h26.2v4.7h-20.9v14.7h18.9v4.7h-18.9v19.5H512z"/>
			<path class="st2" d="M583.2,2024.1v-43.6H598c3.4,0,6.2,0.6,8.4,1.7c2.2,1.2,3.8,2.7,4.9,4.8c1.1,2,1.6,4.3,1.6,6.9
				c0,2.6-0.5,4.9-1.6,6.8c-1.1,2-2.7,3.5-4.8,4.7c-2.2,1.1-5,1.7-8.3,1.7h-11.9v-4.8h11.8c2.3,0,4.2-0.3,5.6-1
				c1.4-0.7,2.5-1.7,3.1-2.9c0.6-1.3,1-2.8,1-4.5s-0.3-3.3-1-4.6c-0.7-1.3-1.7-2.3-3.1-3c-1.4-0.7-3.3-1.1-5.7-1.1h-9.3v38.9H583.2z
				 M603.8,2004.5l10.7,19.6h-6.1l-10.6-19.6H603.8z"/>
			<path class="st2" d="M694.4,2002.3c0,4.6-0.8,8.6-2.5,11.9c-1.7,3.4-3.9,5.9-6.8,7.8c-2.9,1.8-6.2,2.7-9.9,2.7s-7-0.9-9.9-2.7
				c-2.9-1.8-5.2-4.4-6.8-7.8c-1.7-3.4-2.5-7.3-2.5-11.9s0.8-8.6,2.5-11.9c1.7-3.4,3.9-5.9,6.8-7.8c2.9-1.8,6.2-2.7,9.9-2.7
				s7,0.9,9.9,2.7c2.9,1.8,5.2,4.4,6.8,7.8S694.4,1997.7,694.4,2002.3z M689.3,2002.3c0-3.8-0.6-7-1.9-9.6c-1.3-2.6-3-4.6-5.1-5.9
				c-2.1-1.3-4.5-2-7.2-2s-5,0.7-7.2,2c-2.1,1.3-3.8,3.3-5.1,5.9c-1.3,2.6-1.9,5.8-1.9,9.6c0,3.8,0.6,7,1.9,9.6
				c1.3,2.6,3,4.6,5.1,5.9c2.1,1.3,4.5,2,7.2,2s5-0.7,7.2-2c2.1-1.3,3.8-3.3,5.1-5.9C688.6,2009.2,689.3,2006.1,689.3,2002.3z"/>
			<path class="st2" d="M773.8,1980.5v43.6h-5.1l-23.8-34.3h-0.4v34.3h-5.3v-43.6h5.1l23.9,34.3h0.4v-34.3H773.8z"/>
			<path class="st2" d="M818,1985.1v-4.7h32.7v4.7H837v38.9h-5.3v-38.9H818z"/>
			<path class="st2" d="M947.8,2024.1v-43.6h26.3v4.7h-21.1v14.7h19.7v4.7h-19.7v14.8h21.4v4.7H947.8z"/>
			<path class="st2" d="M1054.3,1980.5v43.6h-5.1l-23.8-34.3h-0.4v34.3h-5.3v-43.6h5.1l23.9,34.3h0.4v-34.3H1054.3z"/>
			<path class="st2" d="M1114.3,2024.1h-13.5v-43.6h14.1c4.2,0,7.9,0.9,10.9,2.6c3,1.7,5.3,4.2,6.9,7.5c1.6,3.2,2.4,7.1,2.4,11.6
				c0,4.5-0.8,8.5-2.4,11.7s-4,5.8-7.1,7.5C1122.5,2023.2,1118.8,2024.1,1114.3,2024.1z M1106.1,2019.4h7.8c3.6,0,6.6-0.7,9-2.1
				s4.1-3.4,5.3-5.9c1.2-2.6,1.7-5.6,1.7-9.2c0-3.5-0.6-6.6-1.7-9.1s-2.9-4.5-5.2-5.9s-5.1-2.1-8.5-2.1h-8.4V2019.4z"/>
			<path class="st2" d="M1246.3,2024.1h-13.5v-43.6h14.1c4.2,0,7.9,0.9,10.9,2.6c3,1.7,5.3,4.2,6.9,7.5c1.6,3.2,2.4,7.1,2.4,11.6
				c0,4.5-0.8,8.5-2.4,11.7s-4,5.8-7.1,7.5C1254.5,2023.2,1250.8,2024.1,1246.3,2024.1z M1238.1,2019.4h7.8c3.6,0,6.6-0.7,9-2.1
				s4.1-3.4,5.3-5.9c1.2-2.6,1.7-5.6,1.7-9.2c0-3.5-0.6-6.6-1.7-9.1s-2.9-4.5-5.2-5.9s-5.1-2.1-8.5-2.1h-8.4V2019.4z"/>
			<path class="st2" d="M1312,2024.1v-43.6h26.3v4.7h-21.1v14.7h19.7v4.7h-19.7v14.8h21.4v4.7H1312z"/>
			<path class="st2" d="M1385.7,1980.5l13,36.7h0.5l13-36.7h5.5l-16,43.6h-5.5l-16-43.6H1385.7z"/>
		</g>
	</g>
	<g>
		<path class="st3" d="M873.1,250.2l-134.7,96.2c-1.2,0.9-1.2,2.7,0,3.5l134.7,96.2c1.2,0.8,2.8,0,2.8-1.5v-35.2
			c0-0.8-0.4-1.5-1.1-2l-82.6-56.3c-2.1-1.4-2.1-4.5,0-5.9l82.6-56.3c0.7-0.4,1.1-1.2,1.1-2v-35.2
			C875.9,250.2,874.3,249.4,873.1,250.2z"/>
		<path class="st3" d="M906.7,496.2l108.9-287.1c0.2-0.6,0.8-0.9,1.4-0.9h34.9c1,0,1.7,1,1.4,2L944.3,497.2
			c-0.2,0.6-0.8,0.9-1.4,0.9H908C907,498.2,906.3,497.2,906.7,496.2z"/>
		<path class="st3" d="M1088.8,250.2l134.7,96.2c1.2,0.9,1.2,2.7,0,3.5l-134.7,96.2c-1.2,0.8-2.8,0-2.8-1.5v-35.2
			c0-0.8,0.4-1.5,1.1-2l80.8-55.1c3-2,3-6.4,0-8.4l-80.8-55.1c-0.7-0.4-1.1-1.2-1.1-2v-35.2C1085.9,250.2,1087.6,249.4,1088.8,250.2
			z"/>
	</g>
	<g>
		<g>
			<path class="st4" d="M404.8,603.1h-28c-0.5-3.6-1.6-6.8-3.1-9.7c-1.6-2.8-3.6-5.3-6.1-7.3c-2.5-2-5.3-3.5-8.5-4.6
				c-3.2-1.1-6.7-1.6-10.5-1.6c-6.8,0-12.7,1.7-17.7,5c-5,3.3-8.9,8.2-11.7,14.6c-2.8,6.4-4.2,14.1-4.2,23.2
				c0,9.3,1.4,17.2,4.2,23.5c2.8,6.3,6.7,11.1,11.7,14.4c5,3.2,10.8,4.9,17.5,4.9c3.7,0,7.1-0.5,10.3-1.5c3.2-1,6-2.4,8.5-4.3
				c2.5-1.9,4.5-4.2,6.2-6.9c1.6-2.7,2.8-5.8,3.4-9.3l28,0.1c-0.7,6-2.5,11.8-5.4,17.4c-2.9,5.6-6.7,10.5-11.6,14.9
				c-4.8,4.4-10.6,7.8-17.3,10.4c-6.7,2.5-14.2,3.8-22.6,3.8c-11.7,0-22.1-2.6-31.3-7.9c-9.2-5.3-16.4-12.9-21.7-22.9
				c-5.3-10-8-22.1-8-36.4c0-14.3,2.7-26.4,8.1-36.4c5.4-10,12.7-17.7,21.9-22.9c9.2-5.3,19.6-7.9,31.1-7.9c7.6,0,14.6,1.1,21.1,3.2
				c6.5,2.1,12.3,5.2,17.3,9.3c5,4.1,9.1,9,12.3,14.9C401.8,588.8,403.9,595.5,404.8,603.1z"/>
			<path class="st4" d="M458,688.2h-29.7l45.2-130.9h35.7l45.1,130.9h-29.7l-32.8-101h-1L458,688.2z M456.1,636.7h70.1v21.6h-70.1
				V636.7z"/>
			<path class="st4" d="M580.8,688.2V557.3h51.6c9.9,0,18.3,1.8,25.3,5.3c7,3.5,12.4,8.5,16,14.9c3.7,6.4,5.5,13.9,5.5,22.6
				c0,8.7-1.9,16.2-5.6,22.4c-3.8,6.2-9.2,11-16.3,14.4c-7.1,3.3-15.7,5-25.7,5h-34.6v-22.2h30.1c5.3,0,9.7-0.7,13.2-2.2
				c3.5-1.4,6.1-3.6,7.8-6.5c1.7-2.9,2.6-6.5,2.6-10.8c0-4.3-0.9-8-2.6-11c-1.7-3-4.3-5.3-7.9-6.8s-7.9-2.3-13.3-2.3h-18.7v108.3
				H580.8z M651.5,628.6l32.5,59.6h-30.6l-31.8-59.6H651.5z"/>
			<path class="st4" d="M709.8,688.2V557.3h27.7v108.1h56.1v22.8H709.8z"/>
			<path class="st4" d="M943,622.7c0,14.3-2.7,26.4-8.1,36.4c-5.4,10-12.7,17.7-22,22.9c-9.3,5.3-19.7,7.9-31.2,7.9
				c-11.6,0-22.1-2.6-31.3-7.9c-9.2-5.3-16.6-12.9-21.9-22.9c-5.4-10-8.1-22.1-8.1-36.4c0-14.3,2.7-26.4,8.1-36.4
				c5.4-10,12.7-17.7,21.9-22.9c9.2-5.3,19.7-7.9,31.3-7.9c11.5,0,22,2.6,31.2,7.9c9.3,5.3,16.6,12.9,22,22.9
				C940.3,596.3,943,608.4,943,622.7z M915,622.7c0-9.2-1.4-17-4.1-23.4s-6.6-11.2-11.6-14.4c-5-3.3-10.8-4.9-17.5-4.9
				s-12.5,1.6-17.5,4.9c-5,3.3-8.9,8.1-11.6,14.4s-4.1,14.1-4.1,23.4s1.4,17,4.1,23.4s6.6,11.2,11.6,14.4s10.8,4.9,17.5,4.9
				s12.5-1.6,17.5-4.9s8.9-8.1,11.6-14.4S915,632,915,622.7z"/>
			<path class="st4" d="M1045.3,594.9c-0.5-5.2-2.7-9.2-6.6-12c-3.9-2.9-9.1-4.3-15.8-4.3c-4.5,0-8.3,0.6-11.4,1.9s-5.5,3-7.1,5.2
				c-1.6,2.2-2.5,4.7-2.5,7.5c-0.1,2.3,0.4,4.4,1.5,6.1c1.1,1.7,2.6,3.2,4.5,4.5c1.9,1.3,4.1,2.3,6.6,3.3c2.5,0.9,5.2,1.7,8.1,2.3
				l11.8,2.8c5.7,1.3,11,3,15.7,5.1c4.8,2.1,8.9,4.8,12.4,7.9c3.5,3.1,6.2,6.8,8.2,11c1.9,4.2,2.9,9.1,3,14.5c0,8-2.1,14.9-6.1,20.8
				c-4,5.9-9.8,10.4-17.4,13.6c-7.6,3.2-16.7,4.8-27.3,4.8c-10.6,0-19.8-1.6-27.6-4.9c-7.8-3.2-13.9-8-18.3-14.4
				c-4.4-6.4-6.7-14.3-6.9-23.7h26.8c0.3,4.4,1.6,8,3.8,11c2.2,2.9,5.2,5.1,9,6.6s8,2.2,12.8,2.2c4.7,0,8.8-0.7,12.2-2
				c3.5-1.4,6.2-3.3,8.1-5.7c1.9-2.4,2.9-5.2,2.9-8.4c0-2.9-0.9-5.4-2.6-7.4c-1.7-2-4.2-3.7-7.5-5.1c-3.3-1.4-7.3-2.7-12.1-3.8
				l-14.3-3.6c-11-2.7-19.8-6.9-26.1-12.6c-6.4-5.7-9.6-13.4-9.5-23.1c0-7.9,2.1-14.9,6.4-20.8c4.3-5.9,10.2-10.5,17.7-13.9
				c7.5-3.3,16-5,25.6-5c9.7,0,18.2,1.7,25.5,5c7.3,3.3,12.9,7.9,17,13.9c4,5.9,6.1,12.8,6.3,20.6H1045.3z"/>
			<path class="st4" d="M1155.5,688.2V557.3h27.7v108.1h56.1v22.8H1155.5z"/>
			<path class="st4" d="M1268.4,688.2V557.3h88.2v22.8h-60.5v31.2h56v22.8h-56v31.3h60.8v22.8H1268.4z"/>
			<path class="st4" d="M1417.2,557.3v130.9h-27.7V557.3H1417.2z"/>
			<path class="st4" d="M1445.8,580.1v-22.8h107.5v22.8h-40.1v108.1h-27.4V580.1H1445.8z"/>
			<path class="st4" d="M1581.9,688.2V557.3h88.2v22.8h-60.5v31.2h56v22.8h-56v31.3h60.8v22.8H1581.9z"/>
		</g>
	</g>
	<g>
		<g>
			<path class="st3" d="M512,790.2v-43.6h26.2v4.7h-20.9V766h18.9v4.7h-18.9v19.5H512z"/>
			<path class="st3" d="M583.2,790.2v-43.6H598c3.4,0,6.2,0.6,8.4,1.7c2.2,1.2,3.8,2.7,4.9,4.8c1.1,2,1.6,4.3,1.6,6.9
				c0,2.6-0.5,4.9-1.6,6.8c-1.1,2-2.7,3.5-4.8,4.7c-2.2,1.1-5,1.7-8.3,1.7h-11.9v-4.8h11.8c2.3,0,4.2-0.3,5.6-1
				c1.4-0.7,2.5-1.7,3.1-2.9c0.6-1.3,1-2.8,1-4.5s-0.3-3.3-1-4.6c-0.7-1.3-1.7-2.3-3.1-3c-1.4-0.7-3.3-1.1-5.7-1.1h-9.3v38.9H583.2z
				 M603.8,770.6l10.7,19.6h-6.1l-10.6-19.6H603.8z"/>
			<path class="st3" d="M694.4,768.4c0,4.6-0.8,8.6-2.5,11.9c-1.7,3.4-3.9,5.9-6.8,7.8c-2.9,1.8-6.2,2.7-9.9,2.7s-7-0.9-9.9-2.7
				c-2.9-1.8-5.2-4.4-6.8-7.8c-1.7-3.4-2.5-7.3-2.5-11.9s0.8-8.6,2.5-11.9c1.7-3.4,3.9-5.9,6.8-7.8c2.9-1.8,6.2-2.7,9.9-2.7
				s7,0.9,9.9,2.7c2.9,1.8,5.2,4.4,6.8,7.8S694.4,763.8,694.4,768.4z M689.3,768.4c0-3.8-0.6-7-1.9-9.6c-1.3-2.6-3-4.6-5.1-5.9
				c-2.1-1.3-4.5-2-7.2-2s-5,0.7-7.2,2c-2.1,1.3-3.8,3.3-5.1,5.9c-1.3,2.6-1.9,5.8-1.9,9.6c0,3.8,0.6,7,1.9,9.6
				c1.3,2.6,3,4.6,5.1,5.9c2.1,1.3,4.5,2,7.2,2s5-0.7,7.2-2c2.1-1.3,3.8-3.3,5.1-5.9C688.6,775.3,689.3,772.1,689.3,768.4z"/>
			<path class="st3" d="M773.8,746.5v43.6h-5.1L745,755.9h-0.4v34.3h-5.3v-43.6h5.1l23.9,34.3h0.4v-34.3H773.8z"/>
			<path class="st3" d="M818,751.2v-4.7h32.7v4.7H837v38.9h-5.3v-38.9H818z"/>
			<path class="st3" d="M947.8,790.2v-43.6h26.3v4.7h-21.1V766h19.7v4.7h-19.7v14.8h21.4v4.7H947.8z"/>
			<path class="st3" d="M1054.3,746.5v43.6h-5.1l-23.8-34.3h-0.4v34.3h-5.3v-43.6h5.1l23.9,34.3h0.4v-34.3H1054.3z"/>
			<path class="st3" d="M1114.3,790.2h-13.5v-43.6h14.1c4.2,0,7.9,0.9,10.9,2.6c3,1.7,5.3,4.2,6.9,7.5c1.6,3.2,2.4,7.1,2.4,11.6
				c0,4.5-0.8,8.5-2.4,11.7s-4,5.8-7.1,7.5C1122.5,789.3,1118.8,790.2,1114.3,790.2z M1106.1,785.5h7.8c3.6,0,6.6-0.7,9-2.1
				s4.1-3.4,5.3-5.9c1.2-2.6,1.7-5.6,1.7-9.2c0-3.5-0.6-6.6-1.7-9.1s-2.9-4.5-5.2-5.9s-5.1-2.1-8.5-2.1h-8.4V785.5z"/>
			<path class="st3" d="M1246.3,790.2h-13.5v-43.6h14.1c4.2,0,7.9,0.9,10.9,2.6c3,1.7,5.3,4.2,6.9,7.5c1.6,3.2,2.4,7.1,2.4,11.6
				c0,4.5-0.8,8.5-2.4,11.7s-4,5.8-7.1,7.5C1254.5,789.3,1250.8,790.2,1246.3,790.2z M1238.1,785.5h7.8c3.6,0,6.6-0.7,9-2.1
				s4.1-3.4,5.3-5.9c1.2-2.6,1.7-5.6,1.7-9.2c0-3.5-0.6-6.6-1.7-9.1s-2.9-4.5-5.2-5.9s-5.1-2.1-8.5-2.1h-8.4V785.5z"/>
			<path class="st3" d="M1312,790.2v-43.6h26.3v4.7h-21.1V766h19.7v4.7h-19.7v14.8h21.4v4.7H1312z"/>
			<path class="st3" d="M1385.7,746.5l13,36.7h0.5l13-36.7h5.5l-16,43.6h-5.5l-16-43.6H1385.7z"/>
		</g>
	</g>
</g>
</svg>
