<svg xmlns="http://www.w3.org/2000/svg" xmlns:xlink="http://www.w3.org/1999/xlink" width="500" zoomAndPan="magnify" viewBox="0 0 375 374.999991" height="500" preserveAspectRatio="xMidYMid meet" version="1.0"><defs><clipPath id="6c84fa426b"><path d="M 37.5 37.5 L 337.5 37.5 L 337.5 337.5 L 37.5 337.5 Z M 37.5 37.5 " clip-rule="nonzero"/></clipPath></defs><g clip-path="url(#6c84fa426b)"><path fill="#f14902" d="M 187.5 337.5 C 104.789062 337.5 37.5 270.210938 37.5 187.5 C 37.5 104.789062 104.789062 37.5 187.5 37.5 C 270.210938 37.5 337.5 104.789062 337.5 187.5 C 337.5 270.210938 270.210938 337.5 187.5 337.5 Z M 187.5 337.5 " fill-opacity="1" fill-rule="nonzero"/></g><path fill="#f6e7d8" d="M 145.894531 227.296875 C 143.671875 227.296875 141.429688 226.59375 139.53125 225.136719 L 101.75 196.214844 C 99.191406 194.257812 97.671875 191.230469 97.636719 188.011719 C 97.597656 184.789062 99.042969 181.726562 101.558594 179.710938 L 138.5625 150.015625 C 143.082031 146.386719 149.679688 147.113281 153.304688 151.628906 C 156.929688 156.144531 156.207031 162.75 151.691406 166.371094 L 125.121094 187.695312 L 152.28125 208.480469 C 156.878906 212 157.753906 218.582031 154.234375 223.183594 C 152.167969 225.882812 149.050781 227.296875 145.894531 227.296875 Z M 145.894531 227.296875 " fill-opacity="1" fill-rule="nonzero"/><path fill="#f6e7d8" d="M 229.105469 227.296875 C 225.949219 227.296875 222.832031 225.882812 220.765625 223.183594 C 217.246094 218.582031 218.121094 212 222.71875 208.480469 L 249.878906 187.695312 L 223.308594 166.371094 C 218.792969 162.746094 218.070312 156.144531 221.695312 151.628906 C 225.324219 147.113281 231.925781 146.386719 236.4375 150.015625 L 273.441406 179.710938 C 275.957031 181.726562 277.402344 184.789062 277.363281 188.011719 C 277.328125 191.234375 275.808594 194.257812 273.25 196.214844 L 235.46875 225.136719 C 233.566406 226.59375 231.328125 227.296875 229.105469 227.296875 Z M 229.105469 227.296875 " fill-opacity="1" fill-rule="nonzero"/><path fill="#f6e7d8" d="M 170.449219 247.375 C 169.539062 247.375 168.617188 247.253906 167.695312 247.007812 C 162.109375 245.492188 158.804688 239.730469 160.316406 234.136719 L 187.09375 135.371094 C 188.609375 129.78125 194.367188 126.476562 199.960938 127.992188 C 205.550781 129.507812 208.855469 135.269531 207.339844 140.859375 L 180.5625 239.628906 C 179.296875 244.296875 175.066406 247.371094 170.449219 247.371094 Z M 170.449219 247.375 " fill-opacity="1" fill-rule="nonzero"/></svg>